<svg data-testid="navbar-logo" xmlns="http://www.w3.org/2000/svg" contentScriptType="text/ecmascript" width="50" viewBox="0 0 45 45" height="45"><defs><path d="M9.672-18.594c.894 0 1.75.274 2.562.813.82.543 1.477 1.273 1.97 2.187.5.906.75 1.903.75 2.985 0 1.062-.25 2.054-.75 2.968-.493.918-1.15 1.649-1.97 2.188-.812.543-1.668.812-2.562.812H5.047v5.016c0 .48-.14.871-.422 1.172C4.344-.148 3.969 0 3.5 0c-.438 0-.805-.148-1.094-.453-.281-.313-.422-.703-.422-1.172v-15.344c0-.457.157-.843.47-1.156a1.567 1.567 0 011.155-.469zm0 8.922c.332 0 .66-.14.984-.422.332-.281.598-.644.797-1.094.207-.457.313-.93.313-1.421 0-.5-.106-.973-.313-1.422a2.87 2.87 0 00-.797-1.094c-.324-.27-.652-.406-.984-.406H5.047v5.86zm0 0"></path><path d="M15.188-18.625c.468 0 .843.152 1.124.453.282.305.422.695.422 1.172v9.61c0 1.48-.312 2.788-.937 3.921a6.666 6.666 0 01-2.594 2.64c-1.117.638-2.39.954-3.828.954-1.438 0-2.719-.316-3.844-.953a6.718 6.718 0 01-2.625-2.64c-.617-1.134-.922-2.442-.922-3.923V-17c0-.457.16-.844.485-1.156.32-.313.726-.469 1.219-.469.425 0 .796.156 1.109.469.32.312.484.699.484 1.156v9.61c0 .855.188 1.617.563 2.28.375.669.875 1.18 1.5 1.532.625.355 1.3.531 2.031.531.758 0 1.473-.176 2.14-.531A4.027 4.027 0 0013.11-5.11c.395-.664.594-1.426.594-2.282V-17c0-.477.129-.867.39-1.172.27-.3.634-.453 1.095-.453zm0 0"></path><path d="M16.578-2.61c.227.15.406.337.531.563.133.23.203.469.203.719 0 .324-.105.617-.312.875-.273.324-.68.484-1.219.484-.43 0-.82-.097-1.172-.297-1.273-.726-1.906-2.207-1.906-4.437 0-.633-.21-1.133-.625-1.5-.418-.375-1.015-.563-1.797-.563H5.312v5.141c0 .48-.132.871-.39 1.172-.25.305-.59.453-1.016.453-.511 0-.96-.148-1.344-.453-.386-.313-.578-.703-.578-1.172v-15.344c0-.457.157-.843.47-1.156a1.567 1.567 0 011.155-.469h7.657c.914 0 1.78.25 2.593.75a5.325 5.325 0 011.954 2.047c.488.867.734 1.84.734 2.922 0 .887-.242 1.75-.719 2.594a5.836 5.836 0 01-1.86 2c1.114.773 1.723 1.812 1.829 3.125.062.281.094.558.094.828.062.555.129.95.203 1.187.07.243.234.418.484.532zm-5.453-6.906c.32 0 .633-.144.938-.437.3-.3.546-.703.734-1.203a4.533 4.533 0 00.297-1.64c0-.5-.102-.958-.297-1.376a2.629 2.629 0 00-.735-.984c-.304-.25-.617-.375-.937-.375H5.312v6.015zm0 0"></path><path d="M16.094-18.594c.426 0 .77.14 1.031.422.27.281.406.637.406 1.063v15.484c0 .469-.156.86-.468 1.172-.313.305-.7.453-1.157.453a2.46 2.46 0 01-.734-.11c-.23-.081-.402-.195-.516-.343l-9.75-12.375v11.344c0 .43-.136.78-.406 1.062C4.227-.14 3.867 0 3.422 0c-.43 0-.777-.14-1.047-.422-.262-.281-.39-.633-.39-1.062V-16.97c0-.457.156-.843.468-1.156a1.567 1.567 0 011.156-.469c.27 0 .532.055.782.157.257.105.453.246.578.421L14.64-5.688v-11.421c0-.426.132-.782.406-1.063.27-.281.617-.422 1.047-.422zm0 0"></path><path d="M16.578-2.078c.082.242.125.453.125.64 0 .461-.152.836-.453 1.125-.305.293-.648.438-1.031.438-.324 0-.617-.094-.875-.281a1.852 1.852 0 01-.578-.797l-1.391-3.219H4.469l-1.39 3.25A1.65 1.65 0 012.5-.14c-.25.176-.527.266-.828.266C1.21.125.863.004.625-.235.383-.484.265-.82.265-1.25c0-.156.024-.32.079-.5l6.61-15.89c.144-.352.359-.626.64-.813.281-.195.597-.281.953-.25.32 0 .617.094.89.281.282.188.485.45.61.781zM5.766-7.218h5.312l-2.687-6.22zm0 0"></path><path d="M2.875.11a3.2 3.2 0 01-1.297-.25A3.72 3.72 0 01.484-.907a.29.29 0 01-.03-.453.33.33 0 01.233-.11c.07 0 .145.032.22.094.53.586 1.19.875 1.984.875.488 0 .894-.113 1.218-.344.32-.226.485-.531.485-.906 0-.29-.086-.531-.25-.719a1.79 1.79 0 00-.625-.484 6.588 6.588 0 00-.985-.375 5.527 5.527 0 01-1.093-.422 2.06 2.06 0 01-.72-.625c-.179-.258-.265-.594-.265-1 0-.352.094-.672.281-.953.196-.281.47-.5.813-.656a2.939 2.939 0 011.203-.235c.414 0 .805.07 1.172.203.363.137.656.336.875.594.094.117.14.215.14.297 0 .074-.038.148-.109.219a.288.288 0 01-.203.093c-.074 0-.133-.023-.172-.078a2.045 2.045 0 00-.75-.53 2.36 2.36 0 00-.953-.204c-.492 0-.89.117-1.203.344a1.032 1.032 0 00-.469.89c0 .399.145.7.438.907.3.21.734.402 1.297.578.476.148.867.293 1.171.437.313.149.563.36.75.64.196.274.297.634.297 1.079 0 .344-.105.656-.312.938a2.06 2.06 0 01-.828.671c-.356.164-.762.25-1.219.25zm0 0"></path><path d="M6.156-6.594c.102.063.157.149.157.25a.36.36 0 01-.079.203.276.276 0 01-.234.125.235.235 0 01-.156-.062 3.216 3.216 0 00-1.782-.531c-.554 0-1.054.132-1.5.39-.437.25-.789.61-1.046 1.078-.25.47-.375.996-.375 1.579 0 .605.125 1.14.375 1.609.257.46.613.82 1.062 1.078.445.25.942.375 1.485.375.644 0 1.234-.176 1.765-.531A.325.325 0 016-1.078c.094 0 .172.043.234.125a.27.27 0 01.079.187c0 .118-.047.2-.141.25a4.11 4.11 0 01-.984.454 3.999 3.999 0 01-1.125.171 3.576 3.576 0 01-1.797-.468A3.473 3.473 0 01.969-1.656C.645-2.207.484-2.844.484-3.563c0-.687.157-1.304.47-1.859.32-.562.753-1 1.296-1.312a3.548 3.548 0 011.813-.485c.375 0 .742.059 1.109.172.363.106.691.258.984.453zm0 0"></path><path d="M6.156-.547c.102.063.157.149.157.25a.36.36 0 01-.047.14.428.428 0 01-.125.11A.286.286 0 016-.016a.409.409 0 01-.172-.03 1.183 1.183 0 01-.453-.532c-.117-.25-.172-.64-.172-1.172 0-.477-.137-.813-.406-1a1.526 1.526 0 00-.938-.297H1.594v2.735a.36.36 0 01-.078.234C1.46-.023 1.39 0 1.296 0a.397.397 0 01-.25-.078.318.318 0 01-.093-.234v-6.5c0-.094.024-.165.078-.22a.318.318 0 01.235-.093H4c.395 0 .742.086 1.047.25.3.168.535.398.703.688.176.292.266.62.266.984 0 .437-.118.824-.344 1.156a1.695 1.695 0 01-.875.672c.289.117.531.313.719.594.195.273.296.601.296.984.008.43.04.727.094.89.051.169.133.29.25.36zM4.031-3.594c.239-.02.457-.097.657-.234a1.47 1.47 0 00.5-.547c.125-.238.187-.504.187-.797 0-.383-.133-.703-.39-.953-.262-.258-.606-.39-1.032-.39h-2.36v2.921zm0 0"></path><path d="M5.984-7.125c.094 0 .164.031.22.094a.273.273 0 01.093.218v4.204c0 .5-.121.96-.36 1.375-.242.406-.562.73-.968.968-.407.243-.856.36-1.344.36-.492 0-.938-.117-1.344-.36a2.678 2.678 0 01-.969-.968A2.677 2.677 0 01.954-2.61v-4.204c0-.093.024-.164.078-.218a.336.336 0 01.25-.094c.082 0 .157.031.219.094a.273.273 0 01.094.218v4.204c0 .386.086.742.265 1.062.188.313.438.563.75.75.313.188.649.281 1.016.281.375 0 .719-.093 1.031-.28.32-.188.578-.438.766-.75.187-.321.281-.677.281-1.063v-4.204c0-.093.024-.164.078-.218a.247.247 0 01.203-.094zm0 0"></path><path d="M7.156-7.125c.082 0 .149.031.203.094a.273.273 0 01.094.218v6.5a.318.318 0 01-.094.235.32.32 0 01-.218.078.34.34 0 01-.235-.078.318.318 0 01-.093-.234v-5.594L4.421-2.281c-.063.094-.14.136-.234.125h-.016c-.086 0-.156-.04-.219-.125l-2.39-3.64v5.609a.318.318 0 01-.094.234C1.414-.023 1.344 0 1.25 0a.314.314 0 01-.219-.078.34.34 0 01-.078-.234v-6.5a.32.32 0 01.078-.22.318.318 0 01.235-.093c.039 0 .086.016.14.047a.23.23 0 01.125.094l2.672 4 2.688-4c.07-.102.16-.149.265-.141zm0 0"></path><path d="M3.672-7.125a1.904 1.904 0 011.703 1c.164.305.25.648.25 1.031 0 .387-.086.742-.25 1.063a1.966 1.966 0 01-.703.75c-.293.18-.625.265-1 .265h-2.11v2.704a.318.318 0 01-.093.234.27.27 0 01-.203.078.34.34 0 01-.235-.078.34.34 0 01-.078-.234v-6.5c0-.094.024-.165.078-.22a.318.318 0 01.235-.093zm0 3.531c.394 0 .71-.14.953-.422.25-.289.375-.648.375-1.078 0-.426-.125-.77-.375-1.031-.242-.258-.559-.39-.953-.39h-2.11v2.921zm0 0"></path><path d="M7.297-3.563c0 .7-.149 1.329-.438 1.891-.293.555-.699.992-1.218 1.313-.512.312-1.094.468-1.75.468a3.361 3.361 0 01-1.766-.468A3.337 3.337 0 01.922-1.672C.629-2.234.484-2.863.484-3.562c0-.708.145-1.336.438-1.891.289-.55.691-.984 1.203-1.297a3.361 3.361 0 011.766-.469c.656 0 1.238.157 1.75.469.52.313.925.746 1.218 1.297.29.555.438 1.183.438 1.89zm-.64 0c0-.582-.122-1.109-.36-1.578a2.529 2.529 0 00-.969-1.078 2.688 2.688 0 00-1.437-.39c-.532 0-1.008.132-1.422.39-.418.25-.746.61-.985 1.078-.23.47-.343.996-.343 1.579 0 .593.113 1.124.343 1.593.239.461.567.82.985 1.078.414.25.89.375 1.422.375.539 0 1.02-.125 1.437-.375.414-.257.738-.617.969-1.078.238-.468.36-1 .36-1.593zm0 0"></path><path d="M6.313-.5c.05.074.078.148.078.219a.32.32 0 01-.11.25.41.41 0 01-.234.078.286.286 0 01-.234-.125L2.983-3.641l-1.39 1.297v2.031a.318.318 0 01-.094.235.34.34 0 01-.234.078.34.34 0 01-.235-.078.34.34 0 01-.078-.234v-6.5c0-.094.031-.165.094-.22a.318.318 0 01.234-.093c.094 0 .164.031.219.094a.273.273 0 01.094.218v3.704L5.704-7a.318.318 0 01.234-.094c.07 0 .132.032.187.094a.244.244 0 01.094.188.333.333 0 01-.078.218l-2.672 2.5zm0 0"></path><path d="M5-.594c.082 0 .148.031.203.094a.257.257 0 01.094.203.267.267 0 01-.094.219A.27.27 0 015 0H1.266a.34.34 0 01-.235-.078.34.34 0 01-.078-.234v-6.5c0-.094.024-.165.078-.22a.318.318 0 01.235-.093H5c.082 0 .148.031.203.094a.273.273 0 01.094.218.296.296 0 01-.094.22.27.27 0 01-.203.077H1.594v2.547H4.53c.094 0 .164.031.219.094a.273.273 0 01.094.219.296.296 0 01-.094.219c-.055.054-.125.078-.219.078H1.594v2.765zm0 0"></path><clipPath><path d="M37 22h11.582v2H37zm0 0"></path></clipPath><clipPath><path d="M3.621 22H15v2H3.621zm0 0"></path></clipPath><clipPath><path d="M25 .613h2V12h-2zm0 0"></path></clipPath><clipPath><path d="M33 22h7.348v2H33zm0 0"></path></clipPath><clipPath><path d="M12.371 22H20v2h-7.629zm0 0"></path></clipPath><clipPath><path d="M25 9.145h2V17h-2zm0 0"></path></clipPath></defs><path fill="white" d="M25.879 40.617c-9.688 0-17.57-7.879-17.57-17.566 0-9.688 7.882-17.567 17.57-17.567 9.687 0 17.566 7.88 17.566 17.567 0 9.687-7.879 17.566-17.566 17.566zm0-33.394c-8.73 0-15.832 7.101-15.832 15.828 0 8.73 7.101 15.828 15.832 15.828 8.726 0 15.828-7.098 15.828-15.828 0-8.727-7.102-15.828-15.828-15.828zm0 0"></path><path fill="white" d="M47.531 22.281H38.02c-1.051 0-1.051 1.633 0 1.633h9.511c1.051 0 1.051-1.633 0-1.633zm0 0M14.191 22.281H4.68c-1.055 0-1.055 1.633 0 1.633h9.511c1.051 0 1.051-1.633 0-1.633zm0 0M26.922 44.523v-9.511c0-1.051-1.633-1.051-1.633 0v9.511c0 1.051 1.633 1.051 1.633 0zm0 0M26.922 11.184V1.672c0-1.055-1.633-1.055-1.633 0v9.512c0 1.05 1.633 1.05 1.633 0zm0 0"></path><path fill="#4DC0D7" d="M26.219 34.035c-6.028 0-10.934-4.902-10.934-10.93 0-6.027 4.906-10.93 10.934-10.93 6.027 0 10.93 4.903 10.93 10.93 0 6.028-4.903 10.93-10.93 10.93zm0-20.777c-5.43 0-9.852 4.418-9.852 9.847 0 5.43 4.422 9.848 9.852 9.848 5.43 0 9.847-4.418 9.847-9.848 0-5.43-4.418-9.847-9.847-9.847zm0 0"></path><path fill="#4DC0D7" d="M39.691 22.625h-5.918c-.656 0-.656 1.016 0 1.016h5.918c.657 0 .657-1.016 0-1.016zm0 0M18.945 22.625h-5.918c-.656 0-.656 1.016 0 1.016h5.918c.657 0 .657-1.016 0-1.016zm0 0M26.867 36.465v-5.918c0-.652-1.015-.652-1.015 0v5.918c0 .656 1.015.656 1.015 0zm0 0M26.867 15.723V9.8c0-.653-1.015-.653-1.015 0v5.922c0 .652 1.015.652 1.015 0zm0 0"></path></svg>